HIERARCHY
ROOT Hips
{
    OFFSET 0.000000 0.000000 0.000000
    CHANNELS 6 Xposition Yposition Zposition Zrotation Xrotation Yrotation
    JOINT Spine
    {
        OFFSET -0.000000 8.505030 0.000000
        CHANNELS 3 Zrotation Xrotation Yrotation
        JOINT Spine1
        {
            OFFSET -0.000000 25.070629 0.000000
            CHANNELS 3 Zrotation Xrotation Yrotation
            JOINT Neck
            {
                OFFSET -0.000000 24.967667 2.269788
                CHANNELS 3 Zrotation Xrotation Yrotation
                JOINT Head
                {
                    OFFSET -0.000000 14.520781 -2.074397
                    CHANNELS 3 Zrotation Xrotation Yrotation
                    End Site
                    {
                        OFFSET -0.000000 25.929966 0.000000
                    }
                }
            }
            JOINT LeftShoulder
            {
                OFFSET 4.117346 22.983784 -0.389865
                CHANNELS 3 Zrotation Xrotation Yrotation
                JOINT LeftArm
                {
                    OFFSET 11.957758 0.000000 0.000000
                    CHANNELS 3 Zrotation Xrotation Yrotation
                    JOINT LeftForeArm
                    {
                        OFFSET 31.907600 0.000000 0.000000
                        CHANNELS 3 Zrotation Xrotation Yrotation
                        JOINT LeftHand
                        {
                            OFFSET 28.601147 0.000000 0.000000
                            CHANNELS 3 Zrotation Xrotation Yrotation
                            End Site
                            {
                                OFFSET 15.557981 0.000000 0.000000
                            }
                        }
                    }
                }
            }
            JOINT RightShoulder
            {
                OFFSET -4.061940 22.983784 -0.389865
                CHANNELS 3 Zrotation Xrotation Yrotation
                JOINT RightArm
                {
                    OFFSET -11.957758 0.000000 0.000000
                    CHANNELS 3 Zrotation Xrotation Yrotation
                    JOINT RightForeArm
                    {
                        OFFSET -31.907600 0.000000 0.000000
                        CHANNELS 3 Zrotation Xrotation Yrotation
                        JOINT RightHand
                        {
                            OFFSET -28.601147 0.000000 0.000000
                            CHANNELS 3 Zrotation Xrotation Yrotation
                            End Site
                            {
                                OFFSET -15.557981 0.000000 0.000000
                            }
                        }
                    }
                }
            }
        }
    }
    JOINT LeftUpLeg
    {
        OFFSET 10.371986 0.000000 0.000000
        CHANNELS 3 Zrotation Xrotation Yrotation
        JOINT LeftLeg
        {
            OFFSET -0.000000 -42.486427 0.000000
            CHANNELS 3 Zrotation Xrotation Yrotation
            JOINT LeftFoot
            {
                OFFSET -0.000000 -48.322342 0.000000
                CHANNELS 3 Zrotation Xrotation Yrotation
                JOINT LeftToeBase
                {
                    OFFSET -0.000000 -6.741791 15.557981
                    CHANNELS 3 Zrotation Xrotation Yrotation
                    End Site
                    {
                        OFFSET -0.000000 0.000000 4.148795
                    }
                }
            }
        }
    }
    JOINT RightUpLeg
    {
        OFFSET -10.371986 0.000000 0.000000
        CHANNELS 3 Zrotation Xrotation Yrotation
        JOINT RightLeg
        {
            OFFSET -0.000000 -42.486427 0.000000
            CHANNELS 3 Zrotation Xrotation Yrotation
            JOINT RightFoot
            {
                OFFSET -0.000000 -48.322342 0.000000
                CHANNELS 3 Zrotation Xrotation Yrotation
                JOINT RightToeBase
                {
                    OFFSET -0.000000 -6.741791 15.557981
                    CHANNELS 3 Zrotation Xrotation Yrotation
                    End Site
                    {
                        OFFSET -0.000000 0.000000 4.148795
                    }
                }
            }
        }
    }
}
MOTION
Frames:    4
Frame Time:    0.008333
22.511786    99.089455    43.675220    0.341784    -1.838734    88.554497    1.509523    -8.591999    1.485912    -0.165751    -5.168008    1.365054    -1.988875    33.338886    -8.640676    7.126415    3.865204    -8.562880    14.142055    0.375021    -15.597466    -7.857113    -4.386549    -4.349547    -1.661490    -1.024446    16.159042    5.856884    -1.067476    -5.447870    -14.358266    2.455862    -6.334799    8.943647    -4.855434    22.137806    0.752314    5.050375    -12.990591    1.905430    5.042147    -5.642677    5.268427    9.850708    3.526797    -2.512814    -2.544722    6.525164    -5.062996    -3.401168    8.836749    0.000000    0.000000    0.000000    -1.758386    9.639007    4.309480    1.365229    -4.609733    -1.788422    5.014420    -1.281358    -15.667019    0.000000    0.000000    0.000000    
22.508957    99.084991    43.687176    0.328241    -1.846708    88.572250    1.487350    -8.568825    1.452821    -0.127904    -5.202716    1.335623    -1.928714    33.260071    -8.487702    6.905480    4.022822    -8.424812    14.114956    0.356073    -15.586702    -7.862508    -4.284952    -4.307629    -1.623689    -1.071966    16.128109    5.746863    -1.114363    -5.423728    -14.370989    2.437767    -6.322863    9.011480    -4.926929    22.147871    0.812312    5.097988    -13.055779    1.987746    5.092194    -5.689265    5.293569    9.831466    3.507755    -2.520872    -2.541927    6.537680    -5.054481    -3.409034    8.818698    0.000000    0.000000    0.000000    -1.742354    9.641534    4.289573    1.366622    -4.633221    -1.765690    4.995304    -1.283691    -15.678923    0.000000    0.000000    0.000000    
22.504559    99.089363    43.694050    0.266545    -1.851792    88.542915    1.477960    -8.603863    1.449725    -0.106087    -5.237128    1.333705    -1.703548    33.190987    -8.383266    6.503921    4.153291    -8.326724    14.100897    0.313052    -15.624559    -7.878445    -4.142823    -4.225810    -1.596267    -1.122736    16.097954    5.645341    -1.162307    -5.377283    -14.349553    2.440868    -6.295272    9.049092    -5.001656    22.123976    0.873506    5.089742    -13.107380    2.008979    5.090381    -5.683358    5.301282    9.774781    3.510616    -2.521832    -2.544977    6.540547    -5.065373    -3.401899    8.835711    0.000000    0.000000    0.000000    -1.732923    9.580654    4.284698    1.362954    -4.648641    -1.774174    5.008455    -1.258815    -15.654825    0.000000    0.000000    0.000000    
22.532923    99.081268    43.693638    0.308614    -1.859409    88.511887    1.500687    -8.570655    1.446127    -0.117835    -5.222767    1.328310    -1.778272    33.278965    -8.114697    6.568378    4.064815    -8.048971    14.139955    0.370466    -15.534689    -7.884907    -4.303748    -4.318833    -1.655754    -1.071809    16.129826    5.516732    -1.097315    -5.394559    -14.334417    2.452705    -6.270070    9.093346    -5.090845    22.114599    0.934050    5.089296    -13.173688    2.137130    5.090364    -5.721664    5.304326    9.867619    3.498981    -2.531632    -2.596200    6.594630    -5.052548    -3.404955    8.828880    0.000000    0.000000    0.000000    -1.739780    9.660204    4.290598    1.374373    -4.691431    -1.729610    5.005764    -1.263007    -15.667930    0.000000    0.000000    0.000000    
